<svg width="42" height="47" viewBox="0 0 42 47" fill="none" xmlns="http://www.w3.org/2000/svg">
<path fill-rule="evenodd" clip-rule="evenodd" d="M32.5466 25.005C34.4785 26.9304 38.602 28.098 40.1753 28.3897C38.6299 30.0401 36.0976 29.6496 34.9768 29.4767C34.4259 29.3918 34.2161 29.3594 34.6321 29.6479C35.4968 30.2474 36.4904 30.1827 37.4892 30.1176C37.9484 30.0877 38.4087 30.0577 38.8582 30.0921C40.2851 30.2015 41.3828 31.2342 40.9437 31.6718C40.7622 31.8527 39.8957 31.8548 38.8409 31.8574C37.3445 31.8611 35.469 31.8656 34.6321 32.3829C34.2419 32.6241 33.6629 33.0156 32.9916 33.4695C31.2082 34.6754 28.7733 36.3218 27.4973 36.759L27.4458 36.7766C25.7026 37.3736 23.7615 38.0385 23.3811 40.2051C23.163 41.4473 23.3871 42.2509 23.5915 42.9837C23.7472 43.5418 23.8914 44.0588 23.8202 44.6973C23.6555 46.1742 20.1979 46.7692 20.0881 46.6051C20.0414 46.5353 20.1836 46.4171 20.3496 46.2791C20.5737 46.0928 20.8413 45.8704 20.7467 45.6819C20.6601 45.5092 20.0113 45.5145 19.4079 45.5195C18.8644 45.524 18.3579 45.5281 18.3319 45.4017C18.3032 45.2624 18.6935 45.0597 19.0653 44.8668C19.4055 44.6902 19.7302 44.5216 19.7039 44.4171C19.6822 44.3306 19.4678 44.2746 19.2629 44.221C19.0529 44.1661 18.8529 44.1139 18.8807 44.0342C18.9063 43.9608 19.4954 43.9216 20.1435 43.8785C20.885 43.8292 21.7038 43.7747 21.8444 43.6579C22.1737 43.3844 22.6128 42.0716 21.1309 39.9383C19.9454 38.2316 17.344 37.805 16.1914 37.805L18.1123 38.6188C18.088 38.9276 18.0436 39.3481 17.995 39.8073C17.8973 40.7311 17.783 41.8115 17.783 42.4545C17.783 43.0238 17.9058 43.1524 18.0004 43.2515C18.1058 43.3618 18.1761 43.4355 18.0026 44.0409C17.6733 45.1896 13.2826 45.7913 13.2277 45.1349C13.2002 44.805 13.5746 44.6961 13.9051 44.6001C14.2323 44.505 14.5165 44.4224 14.3254 44.1503C14.1189 43.8562 13.6269 43.8922 13.2416 43.9203C12.9101 43.9446 12.6576 43.963 12.7338 43.7607C12.8358 43.4896 13.4645 43.41 13.9411 43.3496C14.2338 43.3126 14.4692 43.2828 14.4901 43.2203C14.5243 43.1179 14.3659 43.0768 14.1486 43.0204C14.0179 42.9865 13.8659 42.9471 13.7217 42.8855C13.4143 42.7542 13.7217 42.6253 13.9961 42.6733C14.2705 42.7214 16.3012 42.6551 16.3561 42.3451C16.6195 39.1506 15.5328 38.2359 14.5449 37.5795C14.3031 37.4188 13.9296 37.2696 13.4456 37.0763C11.9524 36.4799 9.40641 35.463 6.42223 32.3896C2.50364 28.3538 4.00796 25.1401 5.86586 21.171C6.34988 20.1369 6.8579 19.0516 7.30028 17.8872C9.01264 13.3798 8.17841 10.9219 7.62958 9.73675C5.74274 9.78376 4.77365 8.80711 4.20172 8.23071C4.10821 8.13648 4.02532 8.05294 3.95077 7.98632C1.18466 7.98632 0.0540658 7.54872 0.000830751 6.94701C-0.0524043 6.3453 2.47057 5.96239 2.47057 5.96239C2.47057 5.96239 3.24725 5.68747 3.56658 5.57949C3.56658 5.17683 3.92485 4.95138 4.1926 4.78289C4.30314 4.71333 4.39825 4.65348 4.44636 4.59487C3.56823 4.37607 3.51335 3.61026 3.73288 3.44615C3.90851 3.31487 4.66597 3.61693 4.99527 3.83574C5.34653 2.74172 5.06845 1.19186 4.88551 0.55368C7.21255 -0.627858 8.8188 0.35311 9.33104 0.991287C8.23429 3.80213 8.62847 3.98773 8.95296 4.14052C8.96946 4.14828 8.98581 4.15598 9.00174 4.16392C9.13218 4.22893 9.35735 4.19847 9.57831 4.16858C9.91515 4.12302 10.2422 4.07878 10.2091 4.37607C10.1745 4.68612 8.94678 4.97778 8.94678 4.97778C8.94678 4.97778 10.2281 5.59936 11.5812 8.69743C13.0997 12.1744 12.6617 16.0124 12.3684 18.5834C12.1909 20.1381 12.0664 21.2295 12.4594 21.4974C13.4324 22.161 15.3134 21.3697 16.4525 20.8905C16.5341 20.8562 16.612 20.8234 16.6854 20.793C22.8872 19.5349 30.1317 22.5981 32.5466 25.005ZM11.8556 13.2923C11.7239 8.65367 9.82497 6.21766 8.89196 5.57949L8.61755 6.8376C9.14442 7.45025 9.89815 8.91624 10.2092 9.57265H10.6482C11.219 10.5791 11.691 12.4718 11.8556 13.2923ZM14.8193 22.6461C15.4413 22.245 17.5086 21.1692 21.0211 21.388C24.5336 21.6068 27.9364 22.9197 30.6806 24.8889L25.0276 23.7949L23.9299 24.3419C22.4115 23.4849 18.5953 22.121 14.8193 22.6461ZM8.72731 1.09402C8.55169 1.26906 7.95895 2.57094 7.90406 3.82906L7.24547 3.71966L7.465 0.65641C8.17848 0.711111 8.59925 0.984615 8.72731 1.09402ZM11.1197 22.069C10.8323 22.203 10.3905 22.409 9.71521 22.865C10.2457 21.5339 11.9105 15.535 11.9105 15.535C11.9105 15.535 11.6361 20.5128 11.6361 21.3333C11.6361 21.8282 11.5563 21.8654 11.1197 22.069ZM2.8531 6.32123C2.8531 6.18723 3.45682 6.02312 3.45682 6.21183C3.45682 6.40054 2.8531 6.45523 2.8531 6.32123ZM5.11954 6.17094C4.9 5.84273 5.22909 5.29572 5.5585 5.18632C5.8879 5.07692 6.51347 5.13162 6.60128 5.78803C6.71105 6.60854 5.33907 6.49914 5.11954 6.17094Z" fill="white"/>
</svg>
