<svg width="39" height="47" viewBox="0 0 39 47" fill="none" xmlns="http://www.w3.org/2000/svg">
<path fill-rule="evenodd" clip-rule="evenodd" d="M30.6321 25.005C32.4503 26.9304 36.3313 28.098 37.8121 28.3897C36.3576 30.0401 33.9742 29.6496 32.9193 29.4767C32.4009 29.3918 32.2034 29.3594 32.5949 29.6479C33.4088 30.2474 34.3439 30.1827 35.2839 30.1176C35.7161 30.0877 36.1494 30.0577 36.5724 30.0921C37.9154 30.2015 38.9485 31.2342 38.5353 31.6718C38.3644 31.8527 37.5489 31.8548 36.5561 31.8574C35.1478 31.8611 33.3826 31.8656 32.5949 32.3829C32.2276 32.6241 31.6827 33.0156 31.0509 33.4695C29.3724 34.6754 27.0808 36.3218 25.8798 36.759L25.8313 36.7766C24.1907 37.3736 22.3638 38.0385 22.0057 40.2051C21.8005 41.4473 22.0114 42.2509 22.2038 42.9837C22.3503 43.5418 22.486 44.0588 22.419 44.6973C22.264 46.1742 19.0098 46.7692 18.9065 46.6051C18.8625 46.5353 18.9963 46.4171 19.1526 46.2791C19.3635 46.0928 19.6153 45.8704 19.5263 45.6819C19.4448 45.5092 18.8341 45.5145 18.2662 45.5195C17.7548 45.524 17.278 45.5281 17.2535 45.4017C17.2265 45.2624 17.5939 45.0597 17.9438 44.8668C18.264 44.6902 18.5696 44.5216 18.5449 44.4171C18.5245 44.3306 18.3226 44.2746 18.1298 44.221C17.9321 44.1661 17.7439 44.1139 17.7701 44.0342C17.7942 43.9608 18.3486 43.9216 18.9586 43.8785C19.6565 43.8292 20.4271 43.7747 20.5594 43.6579C20.8694 43.3844 21.2826 42.0716 19.8879 39.9383C18.7722 38.2316 16.3237 37.805 15.239 37.805L17.0469 38.6188C17.024 38.9276 16.9822 39.3481 16.9365 39.8073C16.8445 40.7311 16.737 41.8115 16.737 42.4545C16.737 43.0238 16.8526 43.1524 16.9416 43.2515C17.0407 43.3618 17.1069 43.4355 16.9436 44.0409C16.6337 45.1896 12.5013 45.7913 12.4496 45.1349C12.4237 44.805 12.7761 44.6961 13.0872 44.6001C13.3951 44.505 13.6626 44.4224 13.4827 44.1503C13.2884 43.8562 12.8253 43.8922 12.4627 43.9203C12.1507 43.9446 11.9131 43.963 11.9847 43.7607C12.0807 43.4896 12.6724 43.41 13.121 43.3496C13.3965 43.3126 13.618 43.2828 13.6377 43.2203C13.67 43.1179 13.5209 43.0768 13.3163 43.0204C13.1933 42.9865 13.0503 42.9471 12.9145 42.8855C12.6252 42.7542 12.9145 42.6253 13.1728 42.6733C13.4311 42.7214 15.3423 42.6551 15.394 42.3451C15.6419 39.1506 14.6191 38.2359 13.6893 37.5795C13.4617 37.4188 13.1102 37.2696 12.6547 37.0763C11.2493 36.4799 8.85309 35.463 6.04446 32.3896C2.35636 28.3538 3.7722 25.1401 5.52081 21.171C5.97636 20.1369 6.4545 19.0516 6.87085 17.8872C8.48248 13.3798 7.69733 10.9219 7.18078 9.73675C5.40493 9.78376 4.49285 8.80711 3.95456 8.23071C3.86655 8.13648 3.78853 8.05294 3.71837 7.98632C1.11497 7.98632 0.0508854 7.54872 0.000781884 6.94701C-0.0493216 6.3453 2.32524 5.96239 2.32524 5.96239C2.32524 5.96239 3.05624 5.68747 3.35679 5.57949C3.35679 5.17683 3.69397 4.95138 3.94597 4.78289C4.05001 4.71333 4.13953 4.65348 4.18481 4.59487C3.35834 4.37607 3.30668 3.61026 3.5133 3.44615C3.6786 3.31487 4.39151 3.61693 4.70143 3.83574C5.03202 2.74172 4.77031 1.19186 4.59812 0.55368C6.78828 -0.627858 8.30004 0.35311 8.78215 0.991287C7.74992 3.80213 8.12092 3.98773 8.42632 4.14052C8.44184 4.14828 8.45723 4.15598 8.47223 4.16392C8.595 4.22893 8.80691 4.19847 9.01488 4.16858C9.33191 4.12302 9.63975 4.07878 9.60855 4.37607C9.57602 4.68612 8.4205 4.97778 8.4205 4.97778C8.4205 4.97778 9.62645 5.59936 10.8999 8.69743C12.3291 12.1744 11.9169 16.0124 11.6408 18.5834C11.4738 20.1381 11.3566 21.2295 11.7265 21.4974C12.6423 22.161 14.4127 21.3697 15.4847 20.8905C15.5615 20.8562 15.6349 20.8234 15.7039 20.793C21.5409 19.5349 28.3593 22.5981 30.6321 25.005ZM11.1583 13.2923C11.0343 8.65367 9.24703 6.21766 8.3689 5.57949L8.11063 6.8376C8.60652 7.45025 9.31591 8.91624 9.60862 9.57265H10.0219C10.5591 10.5791 11.0033 12.4718 11.1583 13.2923ZM13.9476 22.6461C14.533 22.245 16.4787 21.1692 19.7846 21.388C23.0905 21.6068 26.2931 22.9197 28.8758 24.8889L23.5554 23.7949L22.5223 24.3419C21.0932 23.4849 17.5015 22.121 13.9476 22.6461ZM8.21394 1.09402C8.04865 1.26906 7.49077 2.57094 7.43912 3.82906L6.81926 3.71966L7.02588 0.65641C7.69739 0.711111 8.09341 0.984615 8.21394 1.09402ZM10.4656 22.069C10.1951 22.203 9.77928 22.409 9.14372 22.865C9.64305 21.5339 11.2099 15.535 11.2099 15.535C11.2099 15.535 10.9516 20.5128 10.9516 21.3333C10.9516 21.8282 10.8765 21.8654 10.4656 22.069ZM2.68527 6.32123C2.68527 6.18723 3.25348 6.02312 3.25348 6.21183C3.25348 6.40054 2.68527 6.45523 2.68527 6.32123ZM4.81839 6.17094C4.61177 5.84273 4.9215 5.29572 5.23153 5.18632C5.54155 5.07693 6.13032 5.13162 6.21297 5.78803C6.31628 6.60854 5.02501 6.49914 4.81839 6.17094Z" fill="white"/>
</svg>
