<svg width="20" height="22" viewBox="0 0 20 22" fill="none" xmlns="http://www.w3.org/2000/svg">
<g clip-path="url(#clip0_17089_32)">
<path d="M5.85842 0.0744918C4.79442 0.127829 4.06782 0.308242 3.43262 0.573442C2.77522 0.845654 2.21802 1.21094 1.66362 1.80212C1.10922 2.39329 0.767816 2.98574 0.513416 3.68529C0.267216 4.36168 0.100416 5.13433 0.0534162 6.26547C0.00641622 7.39661 -0.00398379 7.76019 0.00121622 10.6455C0.00641622 13.5308 0.0184162 13.8925 0.0700162 15.026C0.120816 16.1563 0.290016 16.9281 0.539616 17.6032C0.796216 18.3017 1.13962 18.8935 1.69622 19.4828C2.25282 20.072 2.81002 20.4339 3.47002 20.7046C4.10602 20.9658 4.83342 21.1439 5.89782 21.1934C6.96222 21.2429 7.30482 21.2544 10.0196 21.2488C12.7344 21.2433 13.0762 21.2306 14.1428 21.1768C15.2094 21.123 15.932 20.942 16.5676 20.6781C17.225 20.4048 17.7824 20.0406 18.3366 19.449C18.8908 18.8574 19.232 18.2645 19.4862 17.5645C19.7326 16.8888 19.9 16.1159 19.9462 14.9858C19.9928 13.8517 20.0038 13.4896 19.9986 10.6047C19.9934 7.71982 19.9812 7.35814 19.9306 6.22509C19.88 5.09204 19.7106 4.32258 19.4612 3.64704C19.2042 2.94855 18.8612 2.35717 18.3048 1.76748C17.7484 1.17779 17.19 0.815479 16.5314 0.546029C15.895 0.284442 15.168 0.106154 14.1036 0.0572793C13.0392 0.00840432 12.6966 -0.00413318 9.98082 0.00139182C7.26502 0.00691682 6.92502 0.0192418 5.85842 0.0744918ZM5.97522 19.2819C5.00022 19.2369 4.47082 19.0648 4.11802 18.9207C3.65082 18.7294 3.31802 18.4982 2.96642 18.1283C2.61482 17.7583 2.39882 17.4034 2.21642 16.9081C2.07942 16.5333 1.91442 15.9714 1.86882 14.9355C1.81922 13.8158 1.80882 13.4796 1.80302 10.643C1.79722 7.80631 1.80742 7.47056 1.85362 6.35047C1.89522 5.31538 2.05822 4.75225 2.19362 4.37762C2.37362 3.88058 2.59042 3.52762 2.93942 3.15425C3.28842 2.78089 3.62142 2.55097 4.08802 2.35717C4.44042 2.21097 4.96922 2.03714 5.94382 1.98784C6.99842 1.93472 7.31442 1.92409 9.98382 1.91793C12.6532 1.91177 12.97 1.92239 14.025 1.97169C14.9992 2.01674 15.5294 2.18823 15.8816 2.33294C16.349 2.52419 16.6816 2.7539 17.033 3.12535C17.3844 3.4968 17.601 3.84934 17.7834 4.34617C17.9212 4.71953 18.0848 5.28117 18.1308 6.31732C18.181 7.43783 18.1924 7.77379 18.1972 10.6098C18.202 13.4458 18.1926 13.7827 18.1464 14.9023C18.1038 15.9383 17.9422 16.501 17.8064 16.8762C17.6264 17.3724 17.4094 17.7262 17.0602 18.0994C16.711 18.4725 16.3784 18.7025 15.9116 18.8963C15.5596 19.0422 15.0302 19.2165 14.0564 19.2658C13.0018 19.3185 12.6858 19.3295 10.0154 19.3357C7.34502 19.3419 7.03002 19.3304 5.97542 19.2819M14.1274 4.94648C14.1278 5.19867 14.1986 5.44507 14.3308 5.65452C14.463 5.86396 14.6507 6.02705 14.8701 6.12315C15.0896 6.21925 15.3309 6.24405 15.5636 6.19441C15.7963 6.14476 16.01 6.02291 16.1775 5.84426C16.345 5.66561 16.4589 5.43818 16.5048 5.19075C16.5507 4.94331 16.5264 4.68698 16.4352 4.45417C16.3439 4.22137 16.1898 4.02254 15.9921 3.88284C15.7945 3.74315 15.5624 3.66885 15.325 3.66935C15.0068 3.67003 14.7019 3.80495 14.4773 4.04445C14.2528 4.28394 14.1269 4.6084 14.1274 4.94648ZM4.86542 10.6357C4.87102 13.649 7.17422 16.0862 10.0096 16.0804C12.845 16.0747 15.1404 13.6277 15.135 10.6145C15.1296 7.60124 12.8258 5.16344 9.99002 5.16939C7.15422 5.17534 4.86002 7.62292 4.86542 10.6357ZM6.66662 10.6319C6.66531 9.93143 6.85954 9.24626 7.22473 8.66306C7.58993 8.07985 8.10968 7.62481 8.71828 7.35546C9.32688 7.08612 9.99698 7.01457 10.6439 7.14987C11.2907 7.28517 11.8853 7.62123 12.3524 8.11557C12.8195 8.60991 13.1382 9.24032 13.2681 9.92708C13.398 10.6138 13.3333 11.3261 13.0822 11.9738C12.8311 12.6215 12.4049 13.1755 11.8574 13.5659C11.31 13.9562 10.6659 14.1653 10.0066 14.1666C9.56885 14.1676 9.1352 14.077 8.73042 13.8998C8.32563 13.7227 7.95765 13.4626 7.6475 13.1344C7.33734 12.8061 7.09108 12.4162 6.92277 11.9868C6.75447 11.5574 6.66743 11.097 6.66662 10.6319Z" fill="white"/>
</g>
<defs>
<clipPath id="clip0_17089_32">
<rect width="20" height="21.25" fill="white"/>
</clipPath>
</defs>
</svg>
