<svg width="22" height="19" viewBox="0 0 22 19" fill="none" xmlns="http://www.w3.org/2000/svg">
<path d="M18.8667 4.51748C18.8795 4.71435 18.8795 4.91123 18.8795 5.10992C18.8795 11.164 14.5417 18.1463 6.60996 18.1463V18.1427C4.26689 18.1463 1.97249 17.4332 0 16.0886C0.340702 16.1322 0.683112 16.154 1.02638 16.1549C2.96812 16.1567 4.85436 15.4645 6.38197 14.1898C4.53672 14.1526 2.9186 12.8742 2.35332 11.008C2.99972 11.1405 3.66575 11.1132 4.30019 10.9291C2.28842 10.4972 0.841082 8.61919 0.841082 6.43814C0.841082 6.41818 0.841082 6.39913 0.841082 6.38008C1.44051 6.73481 2.11167 6.93169 2.7982 6.95346C0.903415 5.608 0.319355 2.92977 1.46357 0.835823C3.65294 3.69822 6.88321 5.43834 10.3509 5.62252C10.0033 4.03119 10.4781 2.36365 11.5984 1.245C13.3352 -0.489681 16.0668 -0.40077 17.6994 1.44369C18.6652 1.24137 19.5908 0.864855 20.4379 0.331387C20.1159 1.39197 19.4422 2.29288 18.5422 2.86536C19.397 2.7583 20.2321 2.51516 21.0185 2.14409C20.4396 3.06586 19.7103 3.86879 18.8667 4.51748Z" fill="white"/>
</svg>
